<svg width="500" height="500" viewBox="0 0 132.292 132.292" xmlns="http://www.w3.org/2000/svg"><path style="color:#000;fill:#000;stroke-width:.909561;stroke-linejoin:round;-inkscape-stroke:none" d="M34.328 32.547v2.89h-.349c-1.028 0-1.812.782-1.812 1.811v52.45c0 1.03.784 1.813 1.812 1.813h.349v2.887h-.349c-2.578 0-4.7-2.12-4.7-4.699V37.25c0-2.58 2.122-4.702 4.7-4.702z" transform="matrix(1.2004 0 0 1.2004 -7.972 -10.051)"/><path style="color:#000;fill:#000;stroke-width:.71967;stroke-linejoin:round;-inkscape-stroke:none" d="M28.22 39.004v2.285h-.275c-.814 0-1.434.62-1.434 1.434v41.5c0 .815.62 1.435 1.434 1.435h.275v2.283h-.275c-2.04 0-3.72-1.677-3.72-3.717v-41.5c0-2.041 1.68-3.72 3.72-3.72z" transform="matrix(1.2004 0 0 1.2004 -7.972 -10.051)"/><path style="color:#000;fill:#000;stroke-linejoin:round;-inkscape-stroke:none" d="M40.025 29.473c-2.835 0-5.168 2.333-5.168 5.168v57.664c0 2.835 2.333 5.168 5.168 5.168h48.172c2.835 0 5.168-2.333 5.168-5.168V34.642c0-2.835-2.333-5.168-5.168-5.168zm0 3.176h48.172c1.13 0 1.992.86 1.992 1.992v57.664c0 1.13-.861 1.992-1.992 1.992H40.025c-1.131 0-1.992-.86-1.992-1.992V34.642c0-1.131.86-1.992 1.992-1.992z" transform="matrix(1.2004 0 0 1.2004 -7.972 -10.051)"/><path style="color:#000;fill:#000;stroke-linejoin:round;-inkscape-stroke:none" d="M44.34 41.33a1.39 1.39 0 0 1-1.37-1.37c0-.74.63-1.37 1.37-1.37h39.54c.74 0 1.37.63 1.37 1.37 0 .743-.63 1.37-1.37 1.37zm0 6.618a1.39 1.39 0 0 1-1.37-1.37c0-.74.63-1.37 1.37-1.37h39.54c.74 0 1.37.63 1.37 1.37 0 .742-.63 1.37-1.37 1.37zm0 6.617a1.39 1.39 0 0 1-1.37-1.37c0-.74.63-1.37 1.37-1.37h39.54c.74 0 1.37.63 1.37 1.37 0 .742-.63 1.37-1.37 1.37zm0 6.619c-.74 0-1.37-.63-1.37-1.371s.63-1.37 1.37-1.37h39.54a1.39 1.39 0 0 1 1.37 1.37c0 .74-.63 1.37-1.37 1.37zm0 6.618c-.74 0-1.37-.63-1.37-1.372a1.39 1.39 0 0 1 1.37-1.37h39.54a1.39 1.39 0 0 1 1.37 1.37c0 .74-.63 1.37-1.37 1.37zm0 6.616c-.74 0-1.37-.63-1.37-1.37 0-.742.63-1.37 1.37-1.37h39.54a1.39 1.39 0 0 1 1.37 1.37c0 .74-.63 1.37-1.37 1.37zm0 6.618c-.742 0-1.37-.626-1.37-1.37 0-.743.628-1.37 1.37-1.37h20.917c.744 0 1.372.627 1.372 1.37 0 .744-.628 1.37-1.372 1.37z" transform="matrix(1.2004 0 0 1.2004 -7.972 -10.051)"/><path style="color:#000;fill:#000;stroke-width:.522099;stroke-linejoin:round;-inkscape-stroke:none" d="M23.167 45.721v1.658h-.2c-.59 0-1.04.45-1.04 1.04v30.108c0 .59.45 1.04 1.04 1.04h.2v1.657h-.2a2.71 2.71 0 0 1-2.698-2.697V48.42a2.711 2.711 0 0 1 2.698-2.698z" transform="matrix(1.2004 0 0 1.2004 -7.972 -10.051)"/></svg>