<svg width="500" height="500" viewBox="0 0 132.292 132.292" xmlns="http://www.w3.org/2000/svg"><path style="color:#000;fill:#000;stroke-width:3.77953;stroke-linejoin:round;-inkscape-stroke:none" d="M349.053 139.236v12.004h10.629c4.275 0 7.53 3.254 7.53 7.53v217.95c0 4.276-3.255 7.53-7.53 7.53H177.615c-4.275 0-7.53-3.254-7.53-7.53v-9.343H158.09v9.344c0 10.715 8.81 19.523 19.525 19.523h182.067c10.715 0 19.533-8.808 19.533-19.523V158.77c0-10.716-8.818-19.534-19.533-19.534z" transform="matrix(.28437 0 0 .28437 -4.917 -4.948)"/><path style="color:#000;fill:#000;stroke-linejoin:round;-inkscape-stroke:none" d="M37.125 27.451c-2.835 0-5.168 2.333-5.168 5.168v57.664c0 2.835 2.333 5.168 5.168 5.168h48.172c2.835 0 5.168-2.333 5.168-5.168V32.62c0-2.835-2.333-5.168-5.168-5.168zm0 3.176h48.172c1.131 0 1.992.861 1.992 1.992v57.664c0 1.131-.861 1.992-1.992 1.992H37.125c-1.131 0-1.992-.86-1.992-1.992V32.62c0-1.131.86-1.992 1.992-1.992z" transform="translate(-4.917 -4.948) scale(1.07479)"/><path style="color:#000;fill:#000;stroke-linejoin:round;-inkscape-stroke:none" d="M41.441-39.309a1.39 1.39 0 0 0-1.37 1.37c0 .741.629 1.37 1.37 1.37h39.54c.74 0 1.37-.629 1.37-1.37 0-.742-.63-1.37-1.37-1.37zm0-6.617a1.39 1.39 0 0 0-1.37 1.37c0 .74.629 1.37 1.37 1.37h39.54c.74 0 1.37-.63 1.37-1.37 0-.742-.63-1.37-1.37-1.37zm0-6.617a1.39 1.39 0 0 0-1.37 1.37c0 .74.629 1.37 1.37 1.37h39.54c.74 0 1.37-.63 1.37-1.37 0-.742-.63-1.37-1.37-1.37zm0-6.619c-.741 0-1.37.63-1.37 1.371s.629 1.37 1.37 1.37h39.54a1.39 1.39 0 0 0 1.37-1.37c0-.741-.63-1.371-1.37-1.371zm0-6.618c-.741 0-1.37.63-1.37 1.372a1.39 1.39 0 0 0 1.37 1.369h39.54a1.39 1.39 0 0 0 1.37-1.37c0-.74-.63-1.37-1.37-1.37zm0-6.616c-.741 0-1.37.63-1.37 1.37 0 .742.629 1.37 1.37 1.37h39.54a1.39 1.39 0 0 0 1.37-1.37c0-.74-.63-1.37-1.37-1.37zm0-6.618c-.743 0-1.37.626-1.37 1.37 0 .743.627 1.37 1.37 1.37h20.916c.744 0 1.372-.627 1.372-1.37 0-.744-.628-1.37-1.372-1.37z" transform="matrix(1.0748 0 0 -1.0748 -4.917 -4.948)"/></svg>