<svg width="500" height="500" viewBox="0 0 132.292 132.292" xmlns="http://www.w3.org/2000/svg"><path d="M84.966 105.926H34.359c-4.859 0-8.705-3.846-8.705-8.704V78.396c0-1.215.81-2.024 2.025-2.024 1.214 0 2.024.81 2.024 2.024v18.826c0 2.631 2.024 4.656 4.656 4.656h50.607c1.214 0 2.024.81 2.024 2.024s-.81 2.024-2.024 2.024zM97.92 105.926c-1.214 0-2.023-.81-2.023-2.024 0-1.215.81-2.024 2.024-2.024 2.631 0 4.656-2.025 4.656-4.656V78.396c0-1.215.81-2.024 2.024-2.024 1.215 0 2.024.81 2.024 2.024v18.826c0 4.858-3.846 8.704-8.704 8.704z"/><path d="M79.298 89.732H52.982c-1.215 0-2.024-.81-2.024-2.024 0-1.215.81-2.025 2.024-2.025h26.316c1.214 0 2.024.81 2.024 2.025 0 1.214-1.012 2.024-2.024 2.024zM82.739 59.165l-12.55 18.219c-1.013 1.417-2.43 2.227-4.05 2.227-1.619 0-3.036-.81-4.048-2.227l-12.55-18.219c-.608-.81-.405-2.226.607-2.834 1.012-.607 2.227-.405 2.834.608l11.133 16.396v-46.76c0-1.215 1.013-2.025 2.025-2.025s2.024.81 2.024 2.024v46.761L79.298 56.94c.607-1.013 1.821-1.215 2.834-.608 1.012.608 1.214 2.025.607 2.834z"/></svg>