<svg width="500" height="500" viewBox="0 0 132.292 132.292" xmlns="http://www.w3.org/2000/svg"><path d="M103.729 40.064 92.183 28.518a5.038 5.038 0 0 0-3.585-1.485H32.063a5.076 5.076 0 0 0-5.07 5.07v68.081a5.076 5.076 0 0 0 5.07 5.07h68.08a5.076 5.076 0 0 0 5.07-5.07V43.649a5.036 5.036 0 0 0-1.484-3.585zm-1.16 60.12a2.428 2.428 0 0 1-2.425 2.425H32.063a2.428 2.428 0 0 1-2.425-2.425V32.103a2.428 2.428 0 0 1 2.425-2.425h56.535a2.41 2.41 0 0 1 1.715.71l11.545 11.546a2.409 2.409 0 0 1 .71 1.715v56.535z"/><path d="M90.778 60.972H41.429a4.572 4.572 0 0 0-4.566 4.566v25.908a4.571 4.571 0 0 0 4.566 4.566h49.349a4.571 4.571 0 0 0 4.566-4.566V65.538a4.572 4.572 0 0 0-4.566-4.566zm1.92 30.474c0 1.06-.861 1.921-1.92 1.921H41.429a1.923 1.923 0 0 1-1.92-1.92V65.537c0-1.06.861-1.92 1.92-1.92h49.349c1.059 0 1.92.861 1.92 1.92z"/><path d="M86.855 68.525H45.351a1.323 1.323 0 0 0 0 2.645h41.504a1.323 1.323 0 0 0 0-2.645zm0 8.645H45.351a1.323 1.323 0 0 0 0 2.645h41.504a1.323 1.323 0 0 0 0-2.645zm0 8.644H45.351a1.323 1.323 0 0 0 0 2.645h41.504a1.323 1.323 0 0 0 0-2.645zm-.603-58.781H45.955a1.323 1.323 0 0 0-1.323 1.322v16.97a4.208 4.208 0 0 0 4.204 4.204H83.37a4.208 4.208 0 0 0 4.203-4.203v-16.97a1.323 1.323 0 0 0-1.322-1.323Zm-1.323 18.293c0 .859-.699 1.558-1.558 1.558H48.836a1.56 1.56 0 0 1-1.559-1.558V29.678H84.93v15.648z"/><path d="M76.001 31.648h4.589v12.868H76z"/></svg>